<svg width="32" height="32" viewBox="0 0 32 32" fill="none" xmlns="http://www.w3.org/2000/svg">
<path d="M20.7073 25.2921C20.8002 25.385 20.8739 25.4953 20.9242 25.6167C20.9745 25.7381 21.0004 25.8682 21.0004 25.9996C21.0004 26.131 20.9745 26.2611 20.9242 26.3825C20.8739 26.5039 20.8002 26.6142 20.7073 26.7071C20.6144 26.8 20.5041 26.8737 20.3827 26.924C20.2613 26.9743 20.1312 27.0001 19.9998 27.0001C19.8684 27.0001 19.7383 26.9743 19.6169 26.924C19.4955 26.8737 19.3852 26.8 19.2923 26.7071L9.29231 16.7071C9.19933 16.6142 9.12557 16.5039 9.07525 16.3825C9.02493 16.2611 8.99902 16.131 8.99902 15.9996C8.99902 15.8682 9.02493 15.738 9.07525 15.6166C9.12557 15.4952 9.19933 15.385 9.29231 15.2921L19.2923 5.29208C19.4799 5.10444 19.7344 4.99902 19.9998 4.99902C20.2652 4.99902 20.5197 5.10444 20.7073 5.29208C20.895 5.47972 21.0004 5.73422 21.0004 5.99958C21.0004 6.26494 20.895 6.51944 20.7073 6.70708L11.4136 15.9996L20.7073 25.2921Z" fill="#1C1C1C"/>
</svg>
