<svg width="16" height="16" viewBox="0 0 16 16" fill="none" xmlns="http://www.w3.org/2000/svg">
<path d="M8.58639 1.50378C8.44827 1.49174 8.30915 1.50854 8.17787 1.55314C8.04659 1.59774 7.92602 1.66914 7.82381 1.76283C7.72161 1.85651 7.64 1.97043 7.58417 2.09734C7.52834 2.22425 7.49951 2.36138 7.49952 2.50003V5.04191C7.49779 5.27777 7.58022 5.50652 7.73201 5.68706C7.8838 5.8676 8.09499 5.9881 8.32764 6.02691C8.69937 6.08927 9.04591 6.25541 9.32731 6.50617C9.60871 6.75694 9.81353 7.08212 9.91814 7.44423C10.0228 7.80634 10.0229 8.19065 9.91861 8.55284C9.81429 8.91504 9.60975 9.24039 9.32856 9.49139C9.04736 9.74239 8.70096 9.90882 8.32929 9.97149C7.95762 10.0342 7.5758 9.99054 7.22784 9.84564C6.87989 9.70073 6.57996 9.46045 6.36264 9.15249C6.14531 8.84453 6.01944 8.48143 5.99952 8.10503C5.97389 7.59128 6.07889 7.16753 6.31202 6.83878C6.44903 6.64766 6.51363 6.41405 6.49428 6.17969C6.47493 5.94532 6.37289 5.72547 6.20639 5.55941L4.48014 3.79253C4.38175 3.69413 4.26389 3.61735 4.13412 3.5671C4.00436 3.51685 3.86553 3.49423 3.72652 3.5007C3.58751 3.50718 3.45139 3.54259 3.32685 3.60468C3.20231 3.66677 3.0921 3.75416 3.00327 3.86128C1.96138 5.11002 1.42755 6.70511 1.50792 8.32943C1.58828 9.95376 2.27695 11.4884 3.43702 12.6282C4.65001 13.8316 6.29083 14.5048 7.99952 14.5H8.09264C9.78298 14.4713 11.396 13.7869 12.5914 12.5915C13.7867 11.396 14.4709 9.78287 14.4995 8.09253C14.5464 4.69878 11.9489 1.80503 8.58639 1.50378ZM3.76952 4.49628L5.49514 6.25816V6.26191C5.239 6.62949 5.07814 7.05493 5.02702 7.50003H2.52202C2.62215 6.39508 3.0574 5.34707 3.76952 4.49628ZM2.52264 8.50003H5.04139C5.14508 9.11437 5.43747 9.68119 5.87796 10.1218C6.31846 10.5624 6.8852 10.8549 7.49952 10.9588V13.4775C6.21892 13.3605 5.0198 12.7985 4.11057 11.8892C3.20133 10.9798 2.63947 9.78064 2.52264 8.50003ZM11.8833 11.8838C10.9776 12.7958 9.77952 13.3594 8.49952 13.4757V10.9588C9.07895 10.8623 9.6168 10.5963 10.0451 10.1944C10.4546 9.81288 10.7493 9.32441 10.8957 8.78422C11.0421 8.24402 11.0345 7.67363 10.8737 7.13754C10.7129 6.60145 10.4053 6.12103 9.98576 5.75058C9.56621 5.38014 9.0514 5.13445 8.49952 5.04128V2.50003C11.3445 2.75503 13.5414 5.20503 13.4995 8.07816C13.4799 9.5094 12.8996 10.8758 11.8833 11.8838Z" fill="#1C1C1C"/>
</svg>
