<svg width="16" height="16" viewBox="0 0 16 16" fill="none" xmlns="http://www.w3.org/2000/svg">
<path d="M13.5 6H11V3.5C11 3.36739 10.9473 3.24021 10.8536 3.14645C10.7598 3.05268 10.6326 3 10.5 3H3V2.5C3 2.36739 2.94732 2.24021 2.85355 2.14645C2.75979 2.05268 2.63261 2 2.5 2C2.36739 2 2.24021 2.05268 2.14645 2.14645C2.05268 2.24021 2 2.36739 2 2.5V13.5C2 13.6326 2.05268 13.7598 2.14645 13.8536C2.24021 13.9473 2.36739 14 2.5 14C2.63261 14 2.75979 13.9473 2.85355 13.8536C2.94732 13.7598 3 13.6326 3 13.5V13H8.5C8.63261 13 8.75979 12.9473 8.85355 12.8536C8.94732 12.7598 9 12.6326 9 12.5V10H13.5C13.6326 10 13.7598 9.94732 13.8536 9.85355C13.9473 9.75979 14 9.63261 14 9.5V6.5C14 6.36739 13.9473 6.24021 13.8536 6.14645C13.7598 6.05268 13.6326 6 13.5 6ZM10 4V6H3V4H10ZM8 12H3V10H8V12ZM13 9H3V7H13V9Z" fill="#1C1C1C"/>
</svg>
