<svg width="16" height="16" viewBox="0 0 16 16" fill="none" xmlns="http://www.w3.org/2000/svg">
<path d="M9.5 7.5H8.5V3.5H9C9.53043 3.5 10.0391 3.71071 10.4142 4.08579C10.7893 4.46086 11 4.96957 11 5.5C11 5.63261 11.0527 5.75979 11.1464 5.85355C11.2402 5.94732 11.3674 6 11.5 6C11.6326 6 11.7598 5.94732 11.8536 5.85355C11.9473 5.75979 12 5.63261 12 5.5C11.9992 4.7046 11.6828 3.94202 11.1204 3.37959C10.558 2.81716 9.7954 2.50083 9 2.5H8.5V1.5C8.5 1.36739 8.44732 1.24021 8.35355 1.14645C8.25979 1.05268 8.13261 1 8 1C7.86739 1 7.74021 1.05268 7.64645 1.14645C7.55268 1.24021 7.5 1.36739 7.5 1.5V2.5H7C6.20435 2.5 5.44129 2.81607 4.87868 3.37868C4.31607 3.94129 4 4.70435 4 5.5C4 6.29565 4.31607 7.05871 4.87868 7.62132C5.44129 8.18393 6.20435 8.5 7 8.5H7.5V12.5H6.5C5.96957 12.5 5.46086 12.2893 5.08579 11.9142C4.71071 11.5391 4.5 11.0304 4.5 10.5C4.5 10.3674 4.44732 10.2402 4.35355 10.1464C4.25979 10.0527 4.13261 10 4 10C3.86739 10 3.74021 10.0527 3.64645 10.1464C3.55268 10.2402 3.5 10.3674 3.5 10.5C3.50083 11.2954 3.81716 12.058 4.37959 12.6204C4.94202 13.1828 5.7046 13.4992 6.5 13.5H7.5V14.5C7.5 14.6326 7.55268 14.7598 7.64645 14.8536C7.74021 14.9473 7.86739 15 8 15C8.13261 15 8.25979 14.9473 8.35355 14.8536C8.44732 14.7598 8.5 14.6326 8.5 14.5V13.5H9.5C10.2956 13.5 11.0587 13.1839 11.6213 12.6213C12.1839 12.0587 12.5 11.2956 12.5 10.5C12.5 9.70435 12.1839 8.94129 11.6213 8.37868C11.0587 7.81607 10.2956 7.5 9.5 7.5ZM7 7.5C6.46957 7.5 5.96086 7.28929 5.58579 6.91421C5.21071 6.53914 5 6.03043 5 5.5C5 4.96957 5.21071 4.46086 5.58579 4.08579C5.96086 3.71071 6.46957 3.5 7 3.5H7.5V7.5H7ZM9.5 12.5H8.5V8.5H9.5C10.0304 8.5 10.5391 8.71071 10.9142 9.08579C11.2893 9.46086 11.5 9.96957 11.5 10.5C11.5 11.0304 11.2893 11.5391 10.9142 11.9142C10.5391 12.2893 10.0304 12.5 9.5 12.5Z" fill="#1C1C1C"/>
</svg>
