<svg width="16" height="16" viewBox="0 0 16 16" fill="none" xmlns="http://www.w3.org/2000/svg">
<path d="M8 6C7.60444 6 7.21776 6.1173 6.88886 6.33706C6.55996 6.55682 6.30362 6.86918 6.15224 7.23463C6.00087 7.60009 5.96126 8.00222 6.03843 8.39018C6.1156 8.77814 6.30608 9.13451 6.58579 9.41421C6.86549 9.69392 7.22186 9.8844 7.60982 9.96157C7.99778 10.0387 8.39992 9.99914 8.76537 9.84776C9.13082 9.69639 9.44318 9.44004 9.66294 9.11114C9.8827 8.78224 10 8.39556 10 8C10 7.46957 9.78929 6.96086 9.41421 6.58579C9.03914 6.21071 8.53043 6 8 6ZM8 9C7.80222 9 7.60888 8.94135 7.44443 8.83147C7.27998 8.72159 7.15181 8.56541 7.07612 8.38268C7.00043 8.19996 6.98063 7.99889 7.01922 7.80491C7.0578 7.61093 7.15304 7.43275 7.29289 7.29289C7.43275 7.15304 7.61093 7.0578 7.80491 7.01922C7.99889 6.98063 8.19996 7.00043 8.38269 7.07612C8.56541 7.15181 8.72159 7.27998 8.83147 7.44443C8.94135 7.60888 9 7.80222 9 8C9 8.26522 8.89464 8.51957 8.70711 8.70711C8.51957 8.89464 8.26522 9 8 9ZM8 5C8.39556 5 8.78224 4.8827 9.11114 4.66294C9.44004 4.44318 9.69639 4.13082 9.84776 3.76537C9.99914 3.39992 10.0387 2.99778 9.96157 2.60982C9.8844 2.22186 9.69392 1.86549 9.41421 1.58579C9.13451 1.30608 8.77814 1.1156 8.39018 1.03843C8.00222 0.96126 7.60009 1.00087 7.23463 1.15224C6.86918 1.30362 6.55682 1.55996 6.33706 1.88886C6.1173 2.21776 6 2.60444 6 3C6 3.53043 6.21071 4.03914 6.58579 4.41421C6.96086 4.78929 7.46957 5 8 5ZM8 2C8.19778 2 8.39112 2.05865 8.55557 2.16853C8.72002 2.27841 8.84819 2.43459 8.92388 2.61732C8.99957 2.80004 9.01937 3.00111 8.98079 3.19509C8.9422 3.38907 8.84696 3.56726 8.70711 3.70711C8.56726 3.84696 8.38907 3.9422 8.19509 3.98079C8.00111 4.01937 7.80004 3.99957 7.61732 3.92388C7.43459 3.84819 7.27841 3.72002 7.16853 3.55557C7.05865 3.39112 7 3.19778 7 3C7 2.73478 7.10536 2.48043 7.29289 2.29289C7.48043 2.10536 7.73478 2 8 2ZM8 11C7.60444 11 7.21776 11.1173 6.88886 11.3371C6.55996 11.5568 6.30362 11.8692 6.15224 12.2346C6.00087 12.6001 5.96126 13.0022 6.03843 13.3902C6.1156 13.7781 6.30608 14.1345 6.58579 14.4142C6.86549 14.6939 7.22186 14.8844 7.60982 14.9616C7.99778 15.0387 8.39992 14.9991 8.76537 14.8478C9.13082 14.6964 9.44318 14.44 9.66294 14.1111C9.8827 13.7822 10 13.3956 10 13C10 12.4696 9.78929 11.9609 9.41421 11.5858C9.03914 11.2107 8.53043 11 8 11ZM8 14C7.80222 14 7.60888 13.9414 7.44443 13.8315C7.27998 13.7216 7.15181 13.5654 7.07612 13.3827C7.00043 13.2 6.98063 12.9989 7.01922 12.8049C7.0578 12.6109 7.15304 12.4327 7.29289 12.2929C7.43275 12.153 7.61093 12.0578 7.80491 12.0192C7.99889 11.9806 8.19996 12.0004 8.38269 12.0761C8.56541 12.1518 8.72159 12.28 8.83147 12.4444C8.94135 12.6089 9 12.8022 9 13C9 13.2652 8.89464 13.5196 8.70711 13.7071C8.51957 13.8946 8.26522 14 8 14Z" fill="#1C1C1C"/>
</svg>
