<svg width="16" height="16" viewBox="0 0 16 16" fill="none" xmlns="http://www.w3.org/2000/svg">
<path d="M13 2H3C2.73478 2 2.48043 2.10536 2.29289 2.29289C2.10536 2.48043 2 2.73478 2 3V13C2 13.2652 2.10536 13.5196 2.29289 13.7071C2.48043 13.8946 2.73478 14 3 14H13C13.2652 14 13.5196 13.8946 13.7071 13.7071C13.8946 13.5196 14 13.2652 14 13V3C14 2.73478 13.8946 2.48043 13.7071 2.29289C13.5196 2.10536 13.2652 2 13 2ZM11 7V13H8.5V7H11ZM7.5 13H5V7H7.5V13ZM13 13H12V6.5C12 6.36739 11.9473 6.24021 11.8536 6.14645C11.7598 6.05268 11.6326 6 11.5 6H4.5C4.36739 6 4.24021 6.05268 4.14645 6.14645C4.05268 6.24021 4 6.36739 4 6.5V13H3V3H13V13ZM9.5 4.5C9.5 4.63261 9.44732 4.75979 9.35355 4.85355C9.25979 4.94732 9.13261 5 9 5H7C6.86739 5 6.74021 4.94732 6.64645 4.85355C6.55268 4.75979 6.5 4.63261 6.5 4.5C6.5 4.36739 6.55268 4.24021 6.64645 4.14645C6.74021 4.05268 6.86739 4 7 4H9C9.13261 4 9.25979 4.05268 9.35355 4.14645C9.44732 4.24021 9.5 4.36739 9.5 4.5Z" fill="#1C1C1C"/>
</svg>
