<svg width="32" height="32" viewBox="0 0 32 32" fill="none" xmlns="http://www.w3.org/2000/svg">
<path d="M27.7378 7.6725L19.2703 16.7113C19.0968 16.8966 19.0003 17.1411 19.0003 17.395V24.3312C19.0004 24.4959 18.9599 24.6581 18.8822 24.8033C18.8046 24.9485 18.6923 25.0724 18.5553 25.1637L14.5553 27.83C14.4049 27.9304 14.23 27.9881 14.0494 27.9969C13.8687 28.0058 13.689 27.9655 13.5295 27.8803C13.3699 27.7952 13.2364 27.6683 13.1432 27.5133C13.0501 27.3583 13.0007 27.1809 13.0003 27V17.395C13.0004 17.1411 12.9039 16.8966 12.7303 16.7113L4.26284 7.6725C4.13271 7.5293 4.04693 7.35142 4.01589 7.16044C3.98484 6.96946 4.00987 6.77357 4.08794 6.59652C4.16601 6.41948 4.29376 6.26889 4.45571 6.16301C4.61766 6.05713 4.80685 6.0005 5.00034 6H27.0003C27.1938 6.0005 27.383 6.05713 27.545 6.16301C27.7069 6.26889 27.8347 6.41948 27.9127 6.59652C27.9908 6.77357 28.0158 6.96946 27.9848 7.16044C27.9537 7.35142 27.868 7.5293 27.7378 7.6725Z" fill="#1C1C1C" fill-opacity="0.1"/>
<path d="M28.825 6.19128C28.6711 5.83567 28.416 5.53315 28.0915 5.32135C27.767 5.10955 27.3875 4.99781 27 5.00003H4.99997C4.61288 5.0008 4.23433 5.11387 3.91025 5.32554C3.58616 5.53721 3.33047 5.83838 3.17418 6.19251C3.01789 6.54664 2.96772 6.93852 3.02977 7.3206C3.09181 7.70268 3.2634 8.05855 3.52372 8.34503L3.53372 8.35628L12 17.3963V27C11.9999 27.362 12.098 27.7172 12.284 28.0278C12.4699 28.3384 12.7366 28.5927 13.0557 28.7636C13.3748 28.9345 13.7343 29.0156 14.0958 28.9982C14.4574 28.9808 14.8075 28.8657 15.1087 28.665L19.1087 25.9975C19.3829 25.8149 19.6078 25.5673 19.7632 25.2769C19.9187 24.9864 20 24.662 20 24.3325V17.3963L28.4675 8.35628L28.4775 8.34503C28.7405 8.05986 28.9138 7.70352 28.9756 7.32049C29.0374 6.93747 28.985 6.54472 28.825 6.19128ZM18.5425 16.035C18.1951 16.4033 18.0011 16.89 18 17.3963V24.3325L14 27V17.3963C14.0011 16.8882 13.8079 16.399 13.46 16.0288L4.99997 7.00003H27L18.5425 16.035Z" fill="#1C1C1C"/>
</svg>
