<svg width="16" height="16" viewBox="0 0 16 16" fill="none" xmlns="http://www.w3.org/2000/svg">
<path d="M12.5 7C12.5 7.13261 12.4473 7.25979 12.3536 7.35355C12.2598 7.44732 12.1326 7.5 12 7.5H9.5C9.36739 7.5 9.24021 7.44732 9.14645 7.35355C9.05268 7.25979 9 7.13261 9 7C9 6.86739 9.05268 6.74021 9.14645 6.64645C9.24021 6.55268 9.36739 6.5 9.5 6.5H12C12.1326 6.5 12.2598 6.55268 12.3536 6.64645C12.4473 6.74021 12.5 6.86739 12.5 7ZM12 8.5H9.5C9.36739 8.5 9.24021 8.55268 9.14645 8.64645C9.05268 8.74021 9 8.86739 9 9C9 9.13261 9.05268 9.25979 9.14645 9.35355C9.24021 9.44732 9.36739 9.5 9.5 9.5H12C12.1326 9.5 12.2598 9.44732 12.3536 9.35355C12.4473 9.25979 12.5 9.13261 12.5 9C12.5 8.86739 12.4473 8.74021 12.3536 8.64645C12.2598 8.55268 12.1326 8.5 12 8.5ZM14.5 3.5V12.5C14.5 12.7652 14.3946 13.0196 14.2071 13.2071C14.0196 13.3946 13.7652 13.5 13.5 13.5H2.5C2.23478 13.5 1.98043 13.3946 1.79289 13.2071C1.60536 13.0196 1.5 12.7652 1.5 12.5V3.5C1.5 3.23478 1.60536 2.98043 1.79289 2.79289C1.98043 2.60536 2.23478 2.5 2.5 2.5H13.5C13.7652 2.5 14.0196 2.60536 14.2071 2.79289C14.3946 2.98043 14.5 3.23478 14.5 3.5ZM13.5 12.5V3.5H2.5V12.5H13.5ZM8.48375 10.375C8.5169 10.5035 8.49766 10.6398 8.43027 10.7541C8.36287 10.8684 8.25284 10.9512 8.12438 10.9844C7.99591 11.0175 7.85954 10.9983 7.74526 10.9309C7.63098 10.8635 7.54815 10.7535 7.515 10.625C7.35063 9.98375 6.69875 9.5 5.99937 9.5C5.3 9.5 4.64875 9.98375 4.48375 10.625C4.4506 10.7535 4.36777 10.8635 4.25349 10.9309C4.13921 10.9983 4.00284 11.0175 3.87438 10.9844C3.74591 10.9512 3.63588 10.8684 3.56848 10.7541C3.50109 10.6398 3.48185 10.5035 3.515 10.375C3.67725 9.77109 4.06078 9.25034 4.58938 8.91625C4.30848 8.63702 4.11682 8.28068 4.03868 7.89239C3.96054 7.50411 3.99945 7.10136 4.15048 6.73522C4.3015 6.36907 4.55784 6.05601 4.887 5.83572C5.21615 5.61543 5.60331 5.49784 5.99937 5.49784C6.39544 5.49784 6.7826 5.61543 7.11175 5.83572C7.44091 6.05601 7.69725 6.36907 7.84827 6.73522C7.9993 7.10136 8.03821 7.50411 7.96007 7.89239C7.88193 8.28068 7.69027 8.63702 7.40938 8.91625C7.93854 9.24986 8.32242 9.77078 8.48438 10.375H8.48375ZM6 8.5C6.19778 8.5 6.39112 8.44135 6.55557 8.33147C6.72002 8.22159 6.84819 8.06541 6.92388 7.88268C6.99957 7.69996 7.01937 7.49889 6.98079 7.30491C6.9422 7.11093 6.84696 6.93275 6.70711 6.79289C6.56725 6.65304 6.38907 6.5578 6.19509 6.51921C6.00111 6.48063 5.80004 6.50043 5.61732 6.57612C5.43459 6.65181 5.27841 6.77998 5.16853 6.94443C5.05865 7.10888 5 7.30222 5 7.5C5 7.76522 5.10536 8.01957 5.29289 8.20711C5.48043 8.39464 5.73478 8.5 6 8.5Z" fill="#1C1C1C"/>
</svg>
