<svg width="16" height="16" viewBox="0 0 16 16" fill="none" xmlns="http://www.w3.org/2000/svg">
<path d="M8.59611 11.6476C8.68981 11.7413 8.74244 11.8685 8.74244 12.001C8.74244 12.1336 8.68981 12.2607 8.59611 12.3545L7.97486 12.9795C7.31787 13.636 6.42697 14.0047 5.49813 14.0044C4.5693 14.0042 3.67863 13.6349 3.02205 12.9779C2.36547 12.3209 1.99678 11.43 1.99707 10.5012C1.99736 9.57234 2.36662 8.68166 3.02361 8.02509L4.53111 6.51759C5.16217 5.88603 6.01072 5.51951 6.90313 5.49302C7.79554 5.46653 8.66433 5.78207 9.33174 6.37509C9.38098 6.41875 9.42115 6.47169 9.44993 6.53088C9.47872 6.59006 9.49557 6.65434 9.49952 6.72004C9.50346 6.78573 9.49443 6.85157 9.47293 6.91377C9.45144 6.97598 9.4179 7.03334 9.37424 7.08259C9.33057 7.13183 9.27764 7.172 9.21845 7.20079C9.15926 7.22957 9.09499 7.24642 9.02929 7.25037C8.96359 7.25431 8.89776 7.24528 8.83555 7.22379C8.77335 7.20229 8.71598 7.16875 8.66674 7.12509C8.19006 6.70178 7.56967 6.47656 6.93245 6.4955C6.29523 6.51444 5.68931 6.7761 5.23861 7.22696L3.73111 8.73259C3.26218 9.20152 2.99873 9.83754 2.99873 10.5007C2.99873 11.1639 3.26218 11.7999 3.73111 12.2688C4.20005 12.7378 4.83606 13.0012 5.49924 13.0012C6.16241 13.0012 6.79843 12.7378 7.26736 12.2688L7.88861 11.6476C7.93505 11.6011 7.99019 11.5642 8.05089 11.5391C8.11159 11.5139 8.17666 11.5009 8.24236 11.5009C8.30807 11.5009 8.37313 11.5139 8.43383 11.5391C8.49453 11.5642 8.54968 11.6011 8.59611 11.6476ZM12.9761 3.02259C12.319 2.36698 11.4287 1.99878 10.5005 1.99878C9.57227 1.99878 8.68195 2.36698 8.02486 3.02259L7.40361 3.64446C7.30988 3.73828 7.25725 3.8655 7.25731 3.99812C7.25736 4.13075 7.31011 4.25791 7.40393 4.35165C7.49775 4.44539 7.62496 4.49802 7.75758 4.49796C7.89021 4.4979 8.01737 4.44516 8.11111 4.35134L8.73236 3.73009C9.2013 3.26115 9.83731 2.99771 10.5005 2.99771C11.1637 2.99771 11.7997 3.26115 12.2686 3.73009C12.7375 4.19902 13.001 4.83504 13.001 5.49821C13.001 6.16139 12.7375 6.7974 12.2686 7.26634L10.7611 8.77509C10.3102 9.22569 9.70412 9.48701 9.0669 9.5056C8.42968 9.52419 7.80943 9.29864 7.33299 8.87509C7.28374 8.83142 7.22638 8.79789 7.16417 8.77639C7.10196 8.7549 7.03613 8.74586 6.97044 8.74981C6.83775 8.75778 6.71367 8.81813 6.62549 8.91759C6.58182 8.96683 6.54829 9.0242 6.52679 9.0864C6.5053 9.14861 6.49626 9.21444 6.50021 9.28014C6.50818 9.41282 6.56853 9.5369 6.66799 9.62509C7.33524 10.2183 8.20394 10.534 9.09635 10.5078C9.98876 10.4815 10.8374 10.1152 11.4686 9.48384L12.9761 7.97634C13.6321 7.3192 14.0005 6.42862 14.0005 5.50009C14.0005 4.57156 13.6321 3.68098 12.9761 3.02384V3.02259Z" fill="#1C1C1C"/>
</svg>
