<svg width="12" height="14" viewBox="0 0 12 14" fill="none" xmlns="http://www.w3.org/2000/svg">
<path d="M11 5H4V3.5C4 2.96957 4.21071 2.46086 4.58579 2.08579C4.96086 1.71071 5.46957 1.5 6 1.5C6.96063 1.5 7.825 2.1875 8.01 3.09938C8.03747 3.22823 8.11468 3.34104 8.22486 3.41328C8.33504 3.48551 8.46927 3.51135 8.59839 3.48516C8.72751 3.45898 8.84108 3.38289 8.91441 3.27343C8.98774 3.16397 9.0149 3.03 8.99 2.90062C8.7075 1.50937 7.45 0.5 6 0.5C5.2046 0.500827 4.44202 0.817163 3.87959 1.37959C3.31716 1.94202 3.00083 2.7046 3 3.5V5H1C0.734784 5 0.48043 5.10536 0.292893 5.29289C0.105357 5.48043 0 5.73478 0 6V13C0 13.2652 0.105357 13.5196 0.292893 13.7071C0.48043 13.8946 0.734784 14 1 14H11C11.2652 14 11.5196 13.8946 11.7071 13.7071C11.8946 13.5196 12 13.2652 12 13V6C12 5.73478 11.8946 5.48043 11.7071 5.29289C11.5196 5.10536 11.2652 5 11 5ZM11 13H1V6H11V13ZM6 7C5.57975 7.00014 5.17358 7.15151 4.85574 7.42644C4.53789 7.70137 4.3296 8.08149 4.26892 8.49734C4.20825 8.91319 4.29925 9.33698 4.52529 9.69127C4.75133 10.0456 5.09731 10.3067 5.5 10.4269V11.5C5.5 11.6326 5.55268 11.7598 5.64645 11.8536C5.74021 11.9473 5.86739 12 6 12C6.13261 12 6.25979 11.9473 6.35355 11.8536C6.44732 11.7598 6.5 11.6326 6.5 11.5V10.4269C6.90269 10.3067 7.24867 10.0456 7.47471 9.69127C7.70075 9.33698 7.79175 8.91319 7.73108 8.49734C7.6704 8.08149 7.46211 7.70137 7.14426 7.42644C6.82642 7.15151 6.42025 7.00014 6 7ZM6 9.5C5.85166 9.5 5.70666 9.45601 5.58332 9.3736C5.45999 9.29119 5.36386 9.17406 5.30709 9.03701C5.25032 8.89997 5.23547 8.74917 5.26441 8.60368C5.29335 8.4582 5.36478 8.32456 5.46967 8.21967C5.57456 8.11478 5.7082 8.04335 5.85368 8.01441C5.99917 7.98547 6.14997 8.00033 6.28701 8.05709C6.42406 8.11386 6.54119 8.20999 6.6236 8.33332C6.70601 8.45666 6.75 8.60166 6.75 8.75C6.75 8.94891 6.67098 9.13968 6.53033 9.28033C6.38968 9.42098 6.19891 9.5 6 9.5Z" fill="#1C1C1C"/>
</svg>
