<svg width="16" height="16" viewBox="0 0 16 16" fill="none" xmlns="http://www.w3.org/2000/svg">
<path fill-rule="evenodd" clip-rule="evenodd" d="M4.98446 5.54333C6.5898 6.16333 8.5188 6.16333 10.1238 5.54267C10.8227 6.28015 11.4022 7.12216 11.8415 8.03833C12.1321 8.083 12.4105 8.165 12.6715 8.27933C12.1958 7.06467 11.3911 5.884 10.5261 5L11.7575 3.2C11.5561 3.06886 11.346 2.95148 11.1288 2.84867C10.3155 2.45367 9.00913 2 7.57046 2C6.1018 2 4.76013 2.47333 3.9418 2.87367C3.86046 2.91367 3.78446 2.95256 3.7138 2.99033C3.57146 3.067 3.45146 3.13833 3.35746 3.2L4.58013 5C1.71679 8.01267 -0.416538 13.999 7.57046 13.999C8.11719 14.002 8.6635 13.9685 9.2058 13.899C8.99071 13.7208 8.79888 13.5163 8.6348 13.2903C8.30768 13.3179 7.95291 13.3319 7.57046 13.3323C5.64213 13.3323 4.4328 12.9687 3.71046 12.4687C3.0188 11.9897 2.71513 11.3453 2.67213 10.5913C2.62746 9.808 2.86713 8.89367 3.31613 7.968C3.74446 7.08533 4.34246 6.23567 4.98446 5.54333ZM9.7348 4.976L10.7208 3.535C9.80413 3.601 8.71313 3.81633 7.66313 4.12033C6.91313 4.337 6.08013 4.304 5.30813 4.16167C5.11366 4.12566 4.92054 4.08275 4.72913 4.033L5.36913 4.97533C6.74113 5.46367 8.36313 5.46367 9.7348 4.976ZM4.60146 3.30533C4.86813 3.38467 5.14646 3.45367 5.42913 3.506C6.1458 3.638 6.8648 3.65733 7.4778 3.47967C8.19251 3.27137 8.91946 3.10761 9.65446 2.98933C9.04113 2.80467 8.32413 2.66667 7.57013 2.66667C6.42179 2.66667 5.35113 2.987 4.60146 3.30533Z" fill="black"/>
<path fill-rule="evenodd" clip-rule="evenodd" d="M7.55664 9.33333C7.89697 9.33333 8.20764 9.461 8.44331 9.671C8.31894 9.88705 8.21921 10.1164 8.14597 10.3547C8.08926 10.2476 8.00442 10.158 7.90058 10.0955C7.79674 10.033 7.67783 9.99997 7.55664 10V11.3333C7.72897 11.3333 7.88597 11.268 8.00431 11.1607C7.99124 11.41 8.00622 11.66 8.04897 11.906C7.89228 11.9682 7.72522 12.0001 7.55664 12V12.3333H6.88997V12C6.61419 12 6.34518 11.9146 6.12 11.7554C5.89482 11.5961 5.72455 11.371 5.63264 11.111C5.6032 11.0276 5.60809 10.936 5.64622 10.8562C5.68435 10.7765 5.75261 10.7151 5.83597 10.6857C5.91934 10.6562 6.01099 10.6611 6.09075 10.6992C6.17052 10.7374 6.23187 10.8056 6.26131 10.889C6.30729 11.019 6.39243 11.1315 6.50502 11.2111C6.61761 11.2907 6.7521 11.3334 6.88997 11.3333V10C6.53635 10 6.19721 9.85952 5.94717 9.60948C5.69712 9.35943 5.55664 9.02029 5.55664 8.66667C5.55664 8.31304 5.69712 7.97391 5.94717 7.72386C6.19721 7.47381 6.53635 7.33333 6.88997 7.33333V7H7.55664V7.33333C7.83242 7.33329 8.10143 7.41876 8.32662 7.57798C8.5518 7.73719 8.72207 7.96231 8.81397 8.22233C8.82855 8.26361 8.83485 8.30736 8.83252 8.35107C8.8302 8.39479 8.81928 8.43762 8.8004 8.47711C8.78152 8.51661 8.75504 8.552 8.72248 8.58126C8.68992 8.61053 8.65192 8.63309 8.61064 8.64767C8.56936 8.66224 8.52562 8.66855 8.4819 8.66622C8.43819 8.66389 8.39536 8.65297 8.35586 8.63409C8.31637 8.61521 8.28098 8.58873 8.25171 8.55617C8.22245 8.52362 8.19988 8.48561 8.18531 8.44433C8.13933 8.31436 8.05418 8.20183 7.94159 8.12225C7.829 8.04268 7.69451 7.99997 7.55664 8V9.33333ZM6.88997 8C6.71316 8 6.54359 8.07024 6.41857 8.19526C6.29355 8.32029 6.22331 8.48986 6.22331 8.66667C6.22331 8.84348 6.29355 9.01305 6.41857 9.13807C6.54359 9.2631 6.71316 9.33333 6.88997 9.33333V8Z" fill="black"/>
<path d="M11.6672 11.4733L12.0638 11.1177L12.5088 11.6143L11.3338 12.667L10.1592 11.6137L10.6042 11.1173L11.0005 11.473V10H11.6672V11.4733Z" fill="black"/>
<path fill-rule="evenodd" clip-rule="evenodd" d="M11.3337 14.0001C12.0409 14.0001 12.7192 13.7191 13.2193 13.219C13.7194 12.7189 14.0003 12.0407 14.0003 11.3334C14.0003 10.6262 13.7194 9.94789 13.2193 9.4478C12.7192 8.9477 12.0409 8.66675 11.3337 8.66675C10.6264 8.66675 9.94814 8.9477 9.44804 9.4478C8.94794 9.94789 8.66699 10.6262 8.66699 11.3334C8.66699 12.0407 8.94794 12.7189 9.44804 13.219C9.94814 13.7191 10.6264 14.0001 11.3337 14.0001ZM11.3337 13.3334C11.8641 13.3334 12.3728 13.1227 12.7479 12.7476C13.1229 12.3726 13.3337 11.8638 13.3337 11.3334C13.3337 10.803 13.1229 10.2943 12.7479 9.9192C12.3728 9.54413 11.8641 9.33341 11.3337 9.33341C10.8032 9.33341 10.2945 9.54413 9.91945 9.9192C9.54437 10.2943 9.33366 10.803 9.33366 11.3334C9.33366 11.8638 9.54437 12.3726 9.91945 12.7476C10.2945 13.1227 10.8032 13.3334 11.3337 13.3334Z" fill="black"/>
</svg>
