<svg width="16" height="16" viewBox="0 0 16 16" fill="none" xmlns="http://www.w3.org/2000/svg">
<path d="M11.5 8C11.5 8.69223 11.2947 9.36892 10.9101 9.9445C10.5256 10.5201 9.97893 10.9687 9.33939 11.2336C8.69985 11.4985 7.99612 11.5678 7.31719 11.4327C6.63825 11.2977 6.01461 10.9644 5.52513 10.4749C5.03564 9.98539 4.7023 9.36175 4.56725 8.68282C4.4322 8.00388 4.50152 7.30015 4.76642 6.66061C5.03133 6.02107 5.47993 5.47444 6.05551 5.08986C6.63108 4.70527 7.30777 4.5 8 4.5C8.92826 4.5 9.8185 4.86875 10.4749 5.52513C11.1313 6.1815 11.5 7.07174 11.5 8Z" fill="white" fill-opacity="0.29"/>
</svg>
