<svg width="8" height="8" viewBox="0 0 8 8" fill="none" xmlns="http://www.w3.org/2000/svg">
<path fill-rule="evenodd" clip-rule="evenodd" d="M3.26919 0H4.73081C4.82465 0 4.90638 4.73781e-08 4.98335 0.0114872C5.13328 0.0342742 5.27551 0.0900356 5.39865 0.174311C5.5218 0.258586 5.62245 0.369034 5.69254 0.496821C5.72886 0.562462 5.75438 0.635898 5.78422 0.720001L5.83222 0.857437L5.84519 0.892309C5.88432 0.995346 5.95719 1.08379 6.05314 1.1447C6.14908 1.2056 6.26306 1.23576 6.37838 1.23077H7.67568C7.76169 1.23077 7.84419 1.26319 7.90501 1.32089C7.96583 1.3786 8 1.45686 8 1.53846C8 1.62007 7.96583 1.69833 7.90501 1.75604C7.84419 1.81374 7.76169 1.84616 7.67568 1.84616H0.324324C0.238308 1.84616 0.155815 1.81374 0.0949924 1.75604C0.0341697 1.69833 0 1.62007 0 1.53846C0 1.45686 0.0341697 1.3786 0.0949924 1.32089C0.155815 1.26319 0.238308 1.23077 0.324324 1.23077H1.66054C1.77604 1.22814 1.88762 1.19047 1.97891 1.12328C2.0702 1.0561 2.13639 0.962926 2.16778 0.857437L2.21622 0.720001C2.24562 0.635898 2.27114 0.562462 2.30703 0.496821C2.37716 0.368984 2.47788 0.258504 2.6011 0.174226C2.72433 0.089948 2.86664 0.0342143 3.01665 0.0114872C3.09362 4.73781e-08 3.17535 0 3.26876 0M2.70573 1.23077C2.73568 1.17418 2.76098 1.11547 2.78141 1.05518L2.82465 0.932104C2.864 0.820104 2.87308 0.797539 2.88216 0.781129C2.90551 0.738466 2.93906 0.701585 2.98014 0.673444C3.02122 0.645302 3.06867 0.626682 3.1187 0.619078C3.17506 0.614341 3.23169 0.613108 3.28822 0.615385H4.71092C4.83546 0.615385 4.86141 0.616206 4.88043 0.619488C4.93042 0.627049 4.97785 0.645606 5.01892 0.673674C5.06 0.701743 5.09358 0.738542 5.11697 0.781129C5.12605 0.797539 5.13514 0.820104 5.17449 0.932514L5.21773 1.05559L5.23459 1.10154C5.2516 1.14639 5.27121 1.18947 5.29341 1.23077H2.70573Z" fill="white"/>
<path d="M1.36853 2.54311C1.3628 2.46167 1.3232 2.38572 1.25844 2.33198C1.19369 2.27824 1.10908 2.2511 1.02323 2.25654C0.937391 2.26198 0.857341 2.29956 0.800695 2.36099C0.744048 2.42243 0.715447 2.50269 0.721181 2.58413L0.921829 5.43624C0.958586 5.96219 0.988424 6.38722 1.05848 6.72117C1.13156 7.06783 1.25523 7.35747 1.51123 7.58435C1.76723 7.81122 2.07988 7.90968 2.44961 7.95522C2.80507 7.99953 3.25394 7.99953 3.81005 7.99953H4.19015C4.74583 7.99953 5.19513 7.99953 5.55059 7.95522C5.91988 7.90968 6.23296 7.81163 6.48896 7.58435C6.74453 7.35747 6.86821 7.06742 6.94129 6.72117C7.01134 6.38763 7.04075 5.96219 7.07794 5.43624L7.27859 2.58413C7.28432 2.50269 7.25572 2.42243 7.19907 2.36099C7.14243 2.29956 7.06238 2.26198 6.97653 2.25654C6.89069 2.2511 6.80608 2.27824 6.74133 2.33198C6.67657 2.38572 6.63697 2.46167 6.63123 2.54311L6.43232 5.37388C6.3934 5.9265 6.36572 6.31132 6.30518 6.60055C6.24594 6.88158 6.16378 7.03009 6.04572 7.13511C5.92723 7.24014 5.7655 7.30824 5.46626 7.34517C5.15794 7.38332 4.75145 7.38414 4.16723 7.38414H3.83253C3.24875 7.38414 2.84226 7.38332 2.5335 7.34517C2.23426 7.30824 2.07253 7.24014 1.95405 7.13511C1.83599 7.03009 1.75383 6.88158 1.69459 6.60096C1.63405 6.31132 1.60637 5.9265 1.56745 5.37347L1.36853 2.54311Z" fill="white"/>
<path d="M2.88651 3.28278C2.97206 3.27465 3.05751 3.29908 3.12409 3.3507C3.19066 3.40232 3.23291 3.47691 3.24153 3.55807L3.45775 5.60935C3.46408 5.68939 3.4372 5.7686 3.38284 5.8301C3.32849 5.89159 3.25095 5.93051 3.16678 5.93854C3.08261 5.94656 2.99846 5.92307 2.93228 5.87307C2.86611 5.82307 2.82315 5.75052 2.81256 5.67089L2.59634 3.61961C2.58777 3.53844 2.61352 3.45737 2.66793 3.39421C2.72234 3.33105 2.80096 3.29097 2.88651 3.28278ZM5.11353 3.28278C5.199 3.29097 5.27755 3.33099 5.33194 3.39406C5.38634 3.45713 5.41215 3.5381 5.4037 3.6192L5.18748 5.67048C5.17676 5.74996 5.13378 5.82233 5.06768 5.87221C5.00159 5.92209 4.91759 5.94555 4.83355 5.93758C4.74951 5.92962 4.67206 5.89087 4.61767 5.82958C4.56328 5.76828 4.53623 5.68927 4.54229 5.60935L4.75851 3.55807C4.76714 3.47699 4.80932 3.40246 4.8758 3.35086C4.94228 3.29925 5.02805 3.27477 5.11353 3.28278Z" fill="white"/>
</svg>
