<svg width="16" height="16" viewBox="0 0 16 16" fill="none" xmlns="http://www.w3.org/2000/svg">
<path d="M15.3002 9.39995C15.2477 9.43935 15.1879 9.46801 15.1243 9.48431C15.0607 9.5006 14.9945 9.50421 14.9295 9.49492C14.8645 9.48564 14.8019 9.46364 14.7454 9.43019C14.6889 9.39673 14.6396 9.35248 14.6002 9.29995C14.2988 8.89486 13.9066 8.56619 13.455 8.3404C13.0034 8.1146 12.5051 7.99799 12.0002 7.99995C11.8676 7.99995 11.7404 7.94727 11.6466 7.8535C11.5529 7.75973 11.5002 7.63256 11.5002 7.49995C11.5002 7.36734 11.5529 7.24016 11.6466 7.1464C11.7404 7.05263 11.8676 6.99995 12.0002 6.99995C12.2807 6.99992 12.5556 6.92122 12.7937 6.77279C13.0318 6.62435 13.2234 6.41213 13.3469 6.16022C13.4704 5.90832 13.5208 5.62683 13.4923 5.34774C13.4638 5.06864 13.3577 4.80312 13.1859 4.58134C13.0141 4.35956 12.7835 4.1904 12.5204 4.09308C12.2573 3.99577 11.9721 3.9742 11.6973 4.03081C11.4226 4.08743 11.1692 4.21997 10.966 4.41338C10.7627 4.60679 10.6178 4.85331 10.5477 5.12495C10.5313 5.18856 10.5025 5.24831 10.463 5.3008C10.4235 5.35328 10.374 5.39747 10.3174 5.43084C10.2608 5.46421 10.1982 5.48611 10.1332 5.49529C10.0681 5.50446 10.0019 5.50074 9.93831 5.48432C9.87471 5.46791 9.81495 5.43913 9.76247 5.39962C9.70998 5.36011 9.66579 5.31065 9.63242 5.25407C9.59905 5.19748 9.57715 5.13487 9.56798 5.06983C9.5588 5.00478 9.56252 4.93856 9.57894 4.87495C9.67629 4.49827 9.8602 4.14951 10.1161 3.85642C10.3719 3.56333 10.6926 3.33399 11.0527 3.18667C11.4128 3.03934 11.8023 2.97809 12.1902 3.00778C12.5781 3.03747 12.9538 3.15729 13.2872 3.35771C13.6207 3.55812 13.9028 3.83359 14.1111 4.16221C14.3193 4.49083 14.448 4.86352 14.4869 5.25062C14.5258 5.63773 14.4738 6.02857 14.335 6.39204C14.1963 6.75552 13.9746 7.08159 13.6877 7.34432C14.3676 7.6387 14.9586 8.10583 15.4021 8.69932C15.4415 8.75199 15.4701 8.8119 15.4863 8.87564C15.5025 8.93938 15.506 9.00569 15.4965 9.07077C15.487 9.13585 15.4648 9.19843 15.4311 9.25492C15.3974 9.3114 15.353 9.36069 15.3002 9.39995ZM11.9327 13.2499C11.9676 13.3069 11.9908 13.3702 12.0008 13.4362C12.0108 13.5022 12.0075 13.5696 11.9911 13.6343C11.9747 13.699 11.9455 13.7598 11.9052 13.813C11.8649 13.8663 11.8144 13.9109 11.7565 13.9443C11.6987 13.9777 11.6348 13.9992 11.5686 14.0075C11.5023 14.0158 11.4351 14.0107 11.3708 13.9926C11.3065 13.9745 11.2466 13.9437 11.1944 13.902C11.1422 13.8603 11.0989 13.8086 11.0671 13.7499C10.7521 13.2168 10.3035 12.7749 9.76563 12.468C9.22776 12.161 8.61917 11.9996 7.99988 11.9996C7.38059 11.9996 6.772 12.161 6.23413 12.468C5.69626 12.7749 5.2477 13.2168 4.93269 13.7499C4.90143 13.8097 4.85841 13.8625 4.80621 13.9052C4.75402 13.9479 4.69372 13.9796 4.62896 13.9984C4.56419 14.0172 4.4963 14.0227 4.42936 14.0145C4.36241 14.0064 4.29781 13.9848 4.23943 13.9511C4.18104 13.9173 4.13009 13.8721 4.08963 13.8182C4.04917 13.7642 4.02005 13.7026 4.004 13.6371C3.98796 13.5716 3.98533 13.5036 3.99628 13.437C4.00722 13.3705 4.03151 13.3069 4.06769 13.2499C4.55244 12.4171 5.29156 11.7616 6.17644 11.3799C5.67852 10.9987 5.31258 10.471 5.13006 9.87109C4.94755 9.27114 4.95763 8.62907 5.15889 8.03514C5.36015 7.44121 5.74247 6.92528 6.25211 6.55987C6.76175 6.19446 7.37309 5.99795 8.00019 5.99795C8.62729 5.99795 9.23863 6.19446 9.74827 6.55987C10.2579 6.92528 10.6402 7.44121 10.8415 8.03514C11.0428 8.62907 11.0528 9.27114 10.8703 9.87109C10.6878 10.471 10.3219 10.9987 9.82394 11.3799C10.7088 11.7616 11.4479 12.4171 11.9327 13.2499ZM8.00019 10.9999C8.39575 10.9999 8.78243 10.8827 9.11133 10.6629C9.44023 10.4431 9.69657 10.1308 9.84795 9.76532C9.99932 9.39986 10.0389 8.99773 9.96176 8.60977C9.88459 8.22181 9.69411 7.86544 9.4144 7.58574C9.1347 7.30603 8.77833 7.11555 8.39037 7.03838C8.00241 6.96121 7.60028 7.00081 7.23482 7.15219C6.86937 7.30357 6.55701 7.55991 6.33725 7.88881C6.11749 8.21771 6.00019 8.60439 6.00019 8.99995C6.00019 9.53038 6.2109 10.0391 6.58598 10.4142C6.96105 10.7892 7.46976 10.9999 8.00019 10.9999ZM4.50019 7.49995C4.50019 7.36734 4.44751 7.24016 4.35374 7.1464C4.25997 7.05263 4.1328 6.99995 4.00019 6.99995C3.71964 6.99992 3.44473 6.92122 3.20667 6.77279C2.96861 6.62435 2.77695 6.41213 2.65346 6.16022C2.52997 5.90832 2.4796 5.62683 2.50806 5.34774C2.53653 5.06864 2.6427 4.80312 2.81451 4.58134C2.98631 4.35956 3.21688 4.1904 3.48 4.09308C3.74313 3.99577 4.02827 3.9742 4.30304 4.03081C4.57782 4.08743 4.8312 4.21997 5.03442 4.41338C5.23765 4.60679 5.38255 4.85331 5.45269 5.12495C5.48584 5.25341 5.56867 5.36345 5.68295 5.43084C5.79723 5.49824 5.9336 5.51748 6.06206 5.48432C6.19053 5.45117 6.30056 5.36835 6.36796 5.25407C6.43535 5.13979 6.45459 5.00341 6.42144 4.87495C6.32409 4.49827 6.14017 4.14951 5.88432 3.85642C5.62847 3.56333 5.30774 3.33399 4.94766 3.18667C4.58758 3.03934 4.19808 2.97809 3.81016 3.00778C3.42224 3.03747 3.04661 3.15729 2.71314 3.35771C2.37968 3.55812 2.09759 3.83359 1.88933 4.16221C1.68106 4.49083 1.55237 4.86352 1.51348 5.25062C1.4746 5.63773 1.5266 6.02857 1.66534 6.39204C1.80409 6.75552 2.02575 7.08159 2.31269 7.34432C1.63349 7.63898 1.04314 8.10609 0.60019 8.69932C0.520542 8.80541 0.486299 8.93879 0.504994 9.07013C0.523689 9.20146 0.593791 9.31999 0.699877 9.39964C0.805964 9.47928 0.939345 9.51353 1.07068 9.49483C1.20201 9.47614 1.32054 9.40604 1.40019 9.29995C1.70156 8.89486 2.09382 8.56619 2.54541 8.3404C2.997 8.1146 3.4953 7.99799 4.00019 7.99995C4.1328 7.99995 4.25997 7.94727 4.35374 7.8535C4.44751 7.75973 4.50019 7.63256 4.50019 7.49995Z" fill="#1C1C1C"/>
</svg>
