<svg width="16" height="16" viewBox="0 0 16 16" fill="none" xmlns="http://www.w3.org/2000/svg">
<path d="M7.5 6.5C7.5 6.99445 7.35338 7.4778 7.07867 7.88893C6.80397 8.30005 6.41352 8.62048 5.95671 8.8097C5.49989 8.99892 4.99723 9.04843 4.51228 8.95196C4.02732 8.8555 3.58187 8.6174 3.23223 8.26777C2.8826 7.91814 2.6445 7.47268 2.54804 6.98773C2.45157 6.50277 2.50108 6.00011 2.6903 5.54329C2.87952 5.08648 3.19995 4.69603 3.61108 4.42133C4.0222 4.14662 4.50555 4 5 4C5.66304 4 6.29893 4.26339 6.76777 4.73223C7.23661 5.20107 7.5 5.83696 7.5 6.5Z" fill="#1C1C1C" fill-opacity="0.1"/>
<path d="M8.99989 5.00001C8.99989 4.86741 9.05257 4.74023 9.14634 4.64646C9.24011 4.55269 9.36729 4.50001 9.49989 4.50001H15.4999C15.6325 4.50001 15.7597 4.55269 15.8534 4.64646C15.9472 4.74023 15.9999 4.86741 15.9999 5.00001C15.9999 5.13262 15.9472 5.2598 15.8534 5.35357C15.7597 5.44734 15.6325 5.50001 15.4999 5.50001H9.49989C9.36729 5.50001 9.24011 5.44734 9.14634 5.35357C9.05257 5.2598 8.99989 5.13262 8.99989 5.00001ZM15.4999 7.50001H9.49989C9.36729 7.50001 9.24011 7.55269 9.14634 7.64646C9.05257 7.74023 8.99989 7.86741 8.99989 8.00001C8.99989 8.13262 9.05257 8.2598 9.14634 8.35357C9.24011 8.44734 9.36729 8.50001 9.49989 8.50001H15.4999C15.6325 8.50001 15.7597 8.44734 15.8534 8.35357C15.9472 8.2598 15.9999 8.13262 15.9999 8.00001C15.9999 7.86741 15.9472 7.74023 15.8534 7.64646C15.7597 7.55269 15.6325 7.50001 15.4999 7.50001ZM15.4999 10.5H10.9999C10.8673 10.5 10.7401 10.5527 10.6463 10.6465C10.5526 10.7402 10.4999 10.8674 10.4999 11C10.4999 11.1326 10.5526 11.2598 10.6463 11.3536C10.7401 11.4473 10.8673 11.5 10.9999 11.5H15.4999C15.6325 11.5 15.7597 11.4473 15.8534 11.3536C15.9472 11.2598 15.9999 11.1326 15.9999 11C15.9999 10.8674 15.9472 10.7402 15.8534 10.6465C15.7597 10.5527 15.6325 10.5 15.4999 10.5ZM9.48427 11.875C9.50061 11.9386 9.50427 12.0048 9.49502 12.0699C9.48577 12.1349 9.46381 12.1974 9.43038 12.254C9.39695 12.3105 9.35271 12.3599 9.30018 12.3993C9.24766 12.4387 9.18788 12.4674 9.12427 12.4838C9.08352 12.4947 9.04148 12.5002 8.99927 12.5C8.88838 12.5001 8.78061 12.4633 8.69293 12.3954C8.60525 12.3275 8.54262 12.2324 8.51489 12.125C8.12989 10.6288 6.61864 9.50001 4.99927 9.50001C3.37989 9.50001 1.86864 10.6281 1.48364 12.125C1.45049 12.2535 1.36767 12.3635 1.25339 12.4309C1.13911 12.4983 1.00273 12.5175 0.874269 12.4844C0.745805 12.4512 0.635772 12.3684 0.568376 12.2541C0.50098 12.1399 0.481742 12.0035 0.514894 11.875C0.864269 10.5181 1.87989 9.41939 3.16864 8.87501C2.67241 8.4928 2.30826 7.96485 2.12726 7.36521C1.94626 6.76557 1.95748 6.12432 2.15936 5.53138C2.36124 4.93844 2.74365 4.42356 3.25295 4.05895C3.76225 3.69434 4.37291 3.49829 4.99927 3.49829C5.62563 3.49829 6.23629 3.69434 6.74559 4.05895C7.25489 4.42356 7.6373 4.93844 7.83918 5.53138C8.04106 6.12432 8.05228 6.76557 7.87128 7.36521C7.69028 7.96485 7.32612 8.4928 6.82989 8.87501C8.11927 9.41939 9.13489 10.5181 9.48427 11.875ZM4.99989 8.50001C5.39546 8.50001 5.78214 8.38272 6.11103 8.16295C6.43993 7.94319 6.69628 7.63083 6.84765 7.26538C6.99903 6.89993 7.03864 6.4978 6.96146 6.10983C6.88429 5.72187 6.69381 5.36551 6.41411 5.0858C6.1344 4.8061 5.77804 4.61561 5.39007 4.53844C5.00211 4.46127 4.59998 4.50088 4.23453 4.65225C3.86907 4.80363 3.55672 5.05998 3.33695 5.38887C3.11719 5.71777 2.99989 6.10445 2.99989 6.50001C2.99989 7.03045 3.21061 7.53915 3.58568 7.91423C3.96075 8.2893 4.46946 8.50001 4.99989 8.50001Z" fill="#1C1C1C"/>
</svg>
