<svg width="16" height="16" viewBox="0 0 16 16" fill="none" xmlns="http://www.w3.org/2000/svg">
<path d="M15.854 8.35383L14.354 9.85383C14.3076 9.90032 14.2524 9.9372 14.1917 9.96236C14.131 9.98752 14.066 10.0005 14.0003 10.0005C13.9346 10.0005 13.8695 9.98752 13.8088 9.96236C13.7481 9.9372 13.693 9.90032 13.6465 9.85383L12.1465 8.35383C12.0527 8.26001 12 8.13276 12 8.00008C12 7.8674 12.0527 7.74015 12.1465 7.64633C12.2403 7.55251 12.3676 7.4998 12.5003 7.4998C12.633 7.4998 12.7602 7.55251 12.854 7.64633L13.5003 8.29321V8.00008C13.5009 6.83548 13.1317 5.70075 12.4461 4.75936C11.7605 3.81798 10.7937 3.11853 9.68508 2.76178C8.57646 2.40503 7.38322 2.40939 6.27724 2.77424C5.17126 3.13908 4.20964 3.84558 3.5309 4.79196C3.45349 4.8997 3.33645 4.97228 3.20553 4.99373C3.0746 5.01518 2.94052 4.98374 2.83278 4.90633C2.72503 4.82892 2.65245 4.71188 2.631 4.58096C2.60955 4.45003 2.64099 4.31595 2.7184 4.20821C3.52058 3.08978 4.65708 2.25486 5.96417 1.82372C7.27126 1.39258 8.68147 1.38747 9.99164 1.80914C11.3018 2.2308 12.4443 3.05748 13.2546 4.17006C14.0648 5.28265 14.501 6.62372 14.5003 8.00008V8.29321L15.1465 7.64633C15.2403 7.55251 15.3676 7.4998 15.5003 7.4998C15.633 7.4998 15.7602 7.55251 15.854 7.64633C15.9478 7.74015 16.0006 7.8674 16.0006 8.00008C16.0006 8.13276 15.9478 8.26001 15.854 8.35383ZM13.2803 11.7913C12.4779 12.9089 11.3415 13.7431 10.0349 14.1737C8.72819 14.6044 7.31858 14.6093 6.00892 14.1878C4.69927 13.7663 3.55714 12.9401 2.74693 11.8282C1.93672 10.7162 1.50022 9.37589 1.50028 8.00008V7.70696L0.854028 8.35383C0.760208 8.44765 0.63296 8.50036 0.500278 8.50036C0.367596 8.50036 0.240348 8.44765 0.146528 8.35383C0.0527077 8.26001 0 8.13276 0 8.00008C0 7.8674 0.0527077 7.74015 0.146528 7.64633L1.64653 6.14633C1.69296 6.09984 1.74811 6.06296 1.80881 6.0378C1.86951 6.01264 1.93457 5.99969 2.00028 5.99969C2.06599 5.99969 2.13105 6.01264 2.19175 6.0378C2.25245 6.06296 2.30759 6.09984 2.35403 6.14633L3.85403 7.64633C3.94785 7.74015 4.00056 7.8674 4.00056 8.00008C4.00056 8.13276 3.94785 8.26001 3.85403 8.35383C3.76021 8.44765 3.63296 8.50036 3.50028 8.50036C3.3676 8.50036 3.24035 8.44765 3.14653 8.35383L2.50028 7.70696V8.00008C2.49909 9.34645 2.99393 10.6461 3.89028 11.6507C4.44792 10.8426 5.23204 10.2175 6.14403 9.85383C5.65414 9.46799 5.29667 8.93907 5.12132 8.34064C4.94597 7.74221 4.96147 7.10401 5.16564 6.5148C5.36982 5.92558 5.75254 5.41464 6.26057 5.05301C6.7686 4.69139 7.37669 4.49707 8.00028 4.49707C8.62387 4.49707 9.23196 4.69139 9.73999 5.05301C10.248 5.41464 10.6307 5.92558 10.8349 6.5148C11.0391 7.10401 11.0546 7.74221 10.8792 8.34064C10.7039 8.93907 10.3464 9.46799 9.85653 9.85383C10.7694 10.2175 11.554 10.8434 12.1115 11.6526C12.2379 11.5106 12.3571 11.3623 12.4684 11.2082C12.5458 11.1005 12.6629 11.0279 12.7938 11.0064C12.9247 10.985 13.0588 11.0164 13.1665 11.0938C13.2743 11.1712 13.3469 11.2883 13.3683 11.4192C13.3898 11.5501 13.3583 11.6842 13.2809 11.792L13.2803 11.7913ZM8.00028 9.50008C8.39584 9.50008 8.78252 9.38278 9.11142 9.16302C9.44032 8.94326 9.69666 8.6309 9.84804 8.26545C9.99941 7.9 10.039 7.49786 9.96185 7.1099C9.88468 6.72194 9.6942 6.36557 9.41449 6.08587C9.13479 5.80616 8.77842 5.61568 8.39046 5.53851C8.0025 5.46134 7.60036 5.50095 7.23491 5.65232C6.86946 5.8037 6.5571 6.06004 6.33734 6.38894C6.11758 6.71784 6.00028 7.10452 6.00028 7.50008C6.00028 8.03052 6.21099 8.53922 6.58606 8.9143C6.96114 9.28937 7.46985 9.50008 8.00028 9.50008ZM8.00028 13.5001C9.22056 13.4985 10.4058 13.092 11.3703 12.3445C11.0086 11.7788 10.5103 11.3132 9.92133 10.9907C9.33238 10.6683 8.67173 10.4992 8.00028 10.4992C7.32883 10.4992 6.66818 10.6683 6.07923 10.9907C5.49028 11.3132 4.99199 11.7788 4.63028 12.3445C5.59329 13.0947 6.7795 13.5015 8.00028 13.5001Z" fill="#1C1C1C"/>
</svg>
