<svg width="16" height="16" viewBox="0 0 16 16" fill="none" xmlns="http://www.w3.org/2000/svg">
<path d="M13.7666 0.512695C14.0218 0.542104 14.2695 0.621998 14.4941 0.74707C14.7185 0.872141 14.9165 1.04054 15.0762 1.24219C15.2358 1.4439 15.3543 1.67519 15.4248 1.92285C15.4953 2.17051 15.5167 2.42968 15.4873 2.68555C15.4578 2.94155 15.3779 3.18989 15.2529 3.41504L9.11133 14.4912C8.96409 14.7566 8.75658 14.9837 8.50684 15.1553C8.26022 15.3247 7.97829 15.4344 7.68262 15.4775L7.38672 15.499C6.87767 15.4953 6.38499 15.2928 6.01855 14.9248H6.01758L1.10352 10.002L1.09766 9.99512C0.910827 9.81428 0.761769 9.59766 0.65918 9.3584C0.556648 9.11916 0.502274 8.86197 0.5 8.60156C0.497741 8.34117 0.547165 8.08278 0.645508 7.8418C0.743945 7.60076 0.889539 7.38135 1.07324 7.19727C1.25698 7.01319 1.47546 6.8671 1.71582 6.76855C1.95617 6.67004 2.21401 6.62082 2.47363 6.62305C2.73322 6.62531 2.98992 6.6796 3.22852 6.78223C3.4672 6.88494 3.6837 7.03439 3.86426 7.22168L3.87012 7.22754L6.48047 9.84277L6.94922 10.3125L7.27148 9.73242L11.833 1.50879C11.9579 1.28355 12.1258 1.08492 12.3271 0.924805C12.5284 0.764797 12.759 0.645892 13.0059 0.575195C13.2528 0.504532 13.5115 0.483355 13.7666 0.512695Z" fill="white" stroke="white"/>
</svg>
